<?xml version="1.0" standalone="no"?>
<!DOCTYPE svg PUBLIC "-//W3C//DTD SVG 20010904//EN"
 "http://www.w3.org/TR/2001/REC-SVG-20010904/DTD/svg10.dtd">
<svg version="1.0" xmlns="http://www.w3.org/2000/svg"
 width="612.000000pt" height="459.000000pt" viewBox="0 0 612.000000 459.000000"
 preserveAspectRatio="xMidYMid meet">

<g transform="translate(0.000000,459.000000) scale(0.100000,-0.100000)"
fill="#000000" stroke="none">
<path d="M4620 3815 c-177 -39 -385 -154 -529 -290 -134 -127 -168 -230 -90
-270 59 -31 193 -14 323 41 34 14 75 31 91 37 33 13 46 27 39 39 -3 4 0 16 6
25 10 16 11 15 7 -5 -3 -14 1 -26 11 -33 15 -10 15 -10 0 -5 -12 4 -18 0 -18
-10 0 -10 6 -14 14 -11 10 4 33 -23 72 -84 31 -49 61 -92 66 -95 10 -6 -24 50
-75 125 -17 25 -31 58 -32 74 -2 25 7 34 74 80 147 99 261 236 261 313 0 70
-90 98 -220 69z m-215 -375 c-3 -5 -11 -10 -16 -10 -6 0 -7 5 -4 10 3 6 11 10
16 10 6 0 7 -4 4 -10z m90 -20 c3 -6 -1 -7 -9 -4 -18 7 -21 14 -7 14 6 0 13
-4 16 -10z"/>
<path d="M1473 3790 c-248 -52 -203 -317 85 -504 104 -67 101 -45 24 -201 -28
-55 -48 -102 -46 -104 5 -5 -2 -17 69 122 44 88 63 117 75 113 124 -42 190
-56 264 -56 97 0 145 12 186 47 48 40 63 78 57 143 -7 80 -38 134 -132 226
-68 68 -99 90 -186 133 -151 74 -292 103 -396 81z m292 -309 c3 -5 1 -12 -5
-16 -5 -3 -10 1 -10 9 0 18 6 21 15 7z m50 -12 c8 -23 1 -34 -14 -24 -13 8
-15 45 -2 45 5 0 13 -9 16 -21z m-97 -125 c-2 -18 -7 -24 -22 -22 -14 2 -22
-4 -24 -17 -2 -11 0 -16 5 -10 22 27 28 10 10 -25 -12 -21 -23 -37 -25 -35 -2
2 1 12 7 24 7 13 8 22 1 26 -5 3 -10 23 -10 43 0 34 3 37 30 39 26 2 29 -1 28
-23z m42 -58 c0 -2 -11 -6 -25 -8 -13 -3 -22 -1 -19 3 5 9 44 13 44 5z"/>
<path d="M2628 3333 c12 -2 32 -2 45 0 12 2 2 4 -23 4 -25 0 -35 -2 -22 -4z"/>
<path d="M2530 3318 c0 -4 11 -8 25 -8 14 0 25 4 25 10 0 5 -11 9 -25 8 -14
-1 -25 -6 -25 -10z"/>
<path d="M2755 3321 c14 -7 -4 -10 -63 -10 -79 -1 -83 -2 -77 -21 5 -16 2 -20
-17 -20 -13 0 -30 4 -38 10 -10 6 -25 3 -47 -11 -37 -23 -57 -17 -51 15 4 18
-1 22 -21 23 -22 1 -23 0 -7 -6 22 -9 17 -13 -36 -30 -34 -11 -36 -14 -23 -27
9 -10 23 -13 37 -9 16 5 13 0 -9 -14 -18 -11 -33 -27 -33 -34 0 -7 -16 -21
-36 -30 -35 -17 -35 -17 -29 3 6 19 -7 26 -37 21 -12 -2 -9 24 5 39 6 8 2 6
-10 -4 -13 -10 -20 -22 -18 -27 3 -4 1 -10 -5 -14 -5 -3 -10 -14 -9 -23 0 -14
2 -15 7 -2 10 22 40 24 44 3 2 -10 2 -31 -1 -48 -3 -26 -5 -27 -11 -10 -7 18
-10 15 -24 -17 -9 -21 -21 -38 -26 -38 -6 0 -10 -5 -10 -11 0 -6 7 -9 14 -6
23 9 29 -26 29 -148 0 -60 2 -104 4 -97 3 6 9 10 13 7 5 -3 12 -1 15 5 4 6 3
9 -2 8 -4 -2 -9 0 -10 5 -7 19 -1 27 17 27 17 0 20 -7 20 -51 0 -42 -3 -50
-17 -48 -37 3 -40 -2 -42 -51 0 -34 3 -49 10 -44 6 3 9 24 7 45 -2 22 0 39 4
39 5 0 8 -16 8 -36 0 -24 4 -33 12 -28 8 5 9 2 5 -9 -4 -10 -10 -24 -14 -33
-4 -12 -2 -15 8 -12 8 2 15 19 17 36 2 18 7 32 11 32 5 0 9 36 10 81 1 73 0
81 -19 86 -17 5 -20 14 -20 58 0 46 3 55 21 60 21 7 21 11 15 94 l-6 87 34 17
35 16 3 -241 c2 -186 0 -245 -10 -259 -12 -17 -9 -23 11 -20 4 0 6 -2 6 -6 -4
-23 4 -30 29 -27 27 4 27 4 -3 -7 -16 -7 -35 -16 -41 -21 -13 -9 -44 -1 -44
13 0 5 -7 9 -15 9 -18 0 -18 -5 -5 -30 8 -15 6 -20 -13 -26 -12 -4 -22 -5 -23
-3 0 2 -13 -9 -27 -26 l-26 -30 -1 25 c0 19 2 22 10 10 7 -12 10 -11 15 5 4
11 11 28 16 37 15 30 10 33 -15 9 -24 -23 -25 -23 -19 -2 3 11 12 21 19 21 8
0 14 5 14 10 0 6 -11 8 -27 4 -26 -7 -26 -6 -19 35 l6 41 -107 -2 c-85 -2 -93
-3 -37 -5 69 -4 71 -4 66 -28 -4 -24 -8 -25 -74 -25 -66 0 -69 1 -63 21 7 21
5 22 -31 16 -22 -4 -45 -7 -51 -7 -7 0 -13 -8 -13 -19 0 -14 6 -17 28 -14 27
3 27 3 4 -9 -17 -9 -31 -9 -52 -1 -16 6 -34 7 -41 2 -11 -7 -11 -9 1 -9 13 0
14 -13 9 -82 -4 -46 -4 -86 -2 -90 2 -5 -1 -8 -7 -8 -7 0 -10 23 -8 65 2 48 0
65 -10 65 -7 0 -11 -3 -9 -7 3 -5 1 -109 -5 -233 -10 -241 -15 -381 -17 -498
-1 -70 -2 -73 -23 -72 -40 4 -59 0 -54 -9 3 -4 24 -6 46 -4 36 4 40 2 40 -18
0 -28 5 -23 14 14 5 21 4 27 -5 21 -9 -5 -10 2 -5 27 4 19 8 44 9 56 1 12 6
25 10 30 5 4 7 -25 5 -64 -3 -66 -1 -72 15 -67 12 4 20 -2 26 -18 5 -13 5 -24
0 -26 -5 -2 -9 -8 -9 -13 0 -5 26 -9 58 -8 50 1 53 2 24 9 -46 11 -52 20 -8
13 35 -5 36 -5 36 25 0 30 -2 31 -47 35 l-48 3 48 2 47 2 1 78 c1 42 5 106 9
142 8 65 6 -153 -6 -559 -4 -154 -9 -204 -24 -240 l-18 -46 -17 37 c-11 22
-30 42 -47 49 -40 17 -61 51 -53 87 5 23 -2 43 -31 91 -20 33 -38 61 -41 61
-4 0 24 -52 60 -111 6 -10 6 -26 1 -42 l-9 -26 -32 20 c-30 19 -33 26 -33 67
0 26 -5 54 -11 62 -7 11 -9 0 -4 -40 5 -52 5 -54 -8 -25 -8 17 -29 73 -47 125
-32 91 -53 130 -65 118 -3 -3 2 -22 10 -43 9 -20 18 -49 20 -64 3 -25 64 -139
91 -171 11 -13 10 -18 -7 -28 -17 -11 -21 -10 -27 9 -4 11 -12 21 -17 22 -6 0
-22 8 -38 16 -38 22 -130 253 -115 291 6 16 6 26 -1 28 -12 4 -3 289 10 314
12 23 11 125 -1 133 -13 8 -13 59 2 239 10 121 10 150 0 154 -10 3 -12 37 -7
151 8 181 8 185 41 200 15 7 24 17 21 25 -3 7 -1 18 3 22 6 6 4 20 -3 34 -9
19 -21 26 -47 27 -19 1 -30 0 -24 -3 16 -7 -6 -66 -22 -60 -6 2 -27 -29 -47
-70 -20 -41 -33 -74 -29 -74 4 1 18 23 31 50 41 85 79 111 79 55 0 -13 -3 -23
-7 -21 -3 2 -7 -68 -9 -157 -2 -122 -6 -163 -17 -171 -14 -11 -26 -136 -13
-136 4 0 9 30 11 68 2 37 4 -22 5 -130 1 -109 -1 -198 -5 -198 -5 0 -6 -29 -5
-65 3 -42 0 -65 -7 -65 -7 0 -12 25 -13 63 l-1 62 -6 -65 c-3 -36 -3 -66 2
-68 4 -2 8 -31 9 -65 l1 -62 8 65 c4 36 4 -43 1 -175 -3 -132 -5 -341 -4 -465
0 -163 -3 -227 -11 -232 -7 -4 -7 -8 -2 -8 29 0 33 22 41 255 l9 240 40 -102
c33 -84 45 -105 67 -114 16 -6 28 -16 28 -21 0 -6 -29 -58 -66 -116 -36 -58
-66 -109 -67 -115 -6 -28 27 -11 79 43 32 33 64 58 71 56 8 -3 13 2 13 13 0 9
10 27 23 39 19 18 26 19 36 9 7 -6 12 -7 11 -2 -5 25 1 46 11 39 6 -3 15 0 20
7 6 11 11 11 20 2 9 -9 9 -16 -2 -30 -13 -16 -12 -17 4 -4 14 11 17 11 17 -1
0 -8 -5 -19 -11 -25 -8 -8 14 -50 82 -154 107 -167 119 -182 116 -151 0 11 -5
18 -11 15 -5 -4 -7 1 -3 11 4 9 3 15 -2 12 -13 -8 -63 72 -61 97 4 41 -1 53
-11 28 -9 -22 -12 -19 -59 53 -28 42 -50 79 -50 82 0 3 16 -3 35 -15 31 -18
35 -18 43 -4 5 8 12 12 15 7 48 -80 177 -334 177 -349 0 -23 -20 -18 -29 8 -5
12 -12 22 -17 22 -5 0 -8 4 -6 10 2 5 -6 1 -17 -9 -26 -24 -26 -30 0 -55 19
-17 21 -27 15 -68 -3 -26 -11 -49 -16 -51 -5 -2 -5 -8 2 -15 7 -9 42 -12 107
-10 53 1 98 3 101 4 3 0 17 0 33 -1 37 -2 35 17 -3 22 -17 3 -30 0 -30 -6 0
-6 -5 -5 -12 2 -8 8 -8 15 1 26 10 12 9 14 -6 11 -10 -1 -17 -8 -15 -14 1 -6
0 -11 -2 -11 -10 0 -96 133 -103 158 -3 15 -33 76 -66 137 l-60 110 18 50 c15
41 19 91 23 277 l5 227 31 3 c17 2 78 1 136 -2 l105 -5 0 -210 c0 -195 2 -215
24 -279 26 -75 25 -155 -4 -235 l-14 -41 53 0 53 0 -20 43 c-12 23 -25 43 -29
45 -4 2 -8 39 -8 81 0 55 -7 96 -22 142 -21 59 -23 78 -20 262 l3 197 64 0
c41 0 65 -4 68 -12 3 -7 6 -4 6 6 1 11 4 17 7 14 3 -3 2 -23 -2 -43 -5 -26 -9
-33 -15 -23 -7 10 -9 9 -9 -4 0 -11 -8 -18 -20 -18 -14 0 -20 -7 -20 -21 0
-13 -4 -18 -12 -13 -7 4 -8 3 -4 -4 4 -7 16 -12 28 -12 14 0 18 -5 14 -15 -3
-10 1 -15 13 -15 19 0 28 -30 30 -97 1 -41 4 -53 14 -53 6 0 2 -9 -8 -20 -18
-20 -18 -21 -1 -14 15 6 17 3 12 -13 -5 -15 -1 -22 11 -27 10 -3 23 -8 29 -11
16 -8 13 28 -3 37 -12 8 -7 45 8 54 5 3 14 -8 20 -25 6 -17 16 -31 22 -31 6 0
2 -7 -9 -15 -16 -13 -17 -14 -1 -9 10 4 17 3 16 -2 -4 -16 24 -64 38 -64 17 0
17 6 -6 73 -11 32 -17 57 -14 57 3 0 1 6 -5 13 -6 7 -12 34 -13 60 -3 46 -13
63 -52 90 -16 11 -33 57 -21 57 11 0 33 -29 25 -32 -5 -2 -3 -8 3 -14 10 -10
13 -5 14 19 1 34 -22 67 -45 67 -8 0 -13 6 -10 13 2 8 18 11 45 9 23 -2 42 -1
42 1 0 3 6 38 14 79 19 94 47 173 90 255 20 36 32 71 28 77 -3 6 -5 19 -4 29
2 9 -2 17 -8 17 -6 0 -8 -4 -5 -10 3 -5 1 -10 -5 -10 -7 0 -9 8 -4 23 6 22 6
22 -21 -3 l-27 -25 7 28 c5 17 3 27 -4 27 -6 0 -11 6 -11 14 0 8 -5 18 -11 22
-8 4 -10 -12 -9 -52 1 -33 1 -63 0 -69 -2 -5 -4 -14 -5 -20 -2 -13 -66 -125
-71 -125 -2 0 5 18 16 41 12 23 18 48 15 60 -4 11 -2 19 5 19 6 0 8 -5 4 -11
-4 -7 -1 -10 7 -7 8 3 12 12 10 19 -2 8 -5 46 -7 84 -2 69 -2 69 5 15 7 -52 8
-53 9 -14 1 23 5 56 9 74 4 24 3 31 -5 26 -18 -11 -16 112 2 130 10 9 37 14
83 14 172 0 367 59 407 122 7 12 7 32 0 66 -8 40 -8 49 3 45 7 -3 21 -2 30 1
14 6 11 10 -15 26 -26 16 -32 26 -31 52 l1 33 14 -40 14 -40 -4 43 c-2 23 0
42 5 42 5 0 9 7 9 16 0 14 -3 14 -16 3 -12 -10 -17 -10 -23 0 -12 18 -12 204
-1 211 8 5 15 35 19 83 1 4 7 7 15 7 8 0 16 4 18 8 2 5 14 12 28 15 24 6 26 4
22 -27 -3 -26 1 -37 20 -50 l23 -16 0 -238 c0 -210 -2 -240 -17 -255 -19 -20
-29 -22 -25 -5 1 6 -7 14 -18 16 -17 4 -18 2 -6 -12 8 -9 10 -20 6 -24 -4 -4
-10 -1 -12 6 -6 16 -53 -32 -53 -53 0 -26 -53 -45 -109 -38 -47 5 -51 4 -52
-16 -1 -11 -2 -27 -3 -33 0 -7 -26 -26 -56 -41 -126 -67 -191 -121 -175 -147
11 -18 27 -10 22 11 -4 16 -3 18 9 8 10 -8 14 -8 14 0 0 6 5 11 11 11 5 0 -2
-16 -17 -35 -19 -25 -24 -39 -17 -46 7 -7 26 6 59 43 116 127 183 180 289 230
36 16 68 35 72 40 3 6 2 8 -4 5 -6 -4 -8 4 -4 21 5 26 6 26 9 4 3 -17 8 -22
19 -18 9 4 47 11 85 16 85 12 301 -9 398 -39 85 -26 215 -103 289 -169 109
-97 216 -271 246 -402 2 -8 8 -35 14 -60 6 -25 13 -92 15 -150 2 -71 1 -87 -3
-50 -7 53 -8 54 -9 13 -1 -24 -6 -62 -11 -85 -16 -68 -42 -211 -44 -235 -1
-11 -6 -19 -11 -16 -5 3 -6 0 -4 -8 5 -15 -39 -111 -75 -163 -84 -121 -229
-229 -384 -285 -98 -35 -137 -41 -278 -43 -96 -1 -104 -2 -60 -9 61 -11 267
-4 315 10 21 7 36 7 38 2 2 -6 21 -3 44 5 30 10 45 11 52 4 8 -8 6 -15 -6 -24
-19 -14 -25 -32 -8 -21 6 4 23 9 37 11 15 3 30 8 33 11 3 3 -5 3 -17 0 -15 -3
-23 -1 -23 8 0 8 -8 21 -17 31 -10 10 -13 19 -7 21 38 13 148 88 202 138 36
33 66 59 68 58 2 -2 3 -2 2 0 -1 1 4 13 11 27 11 23 11 24 -3 6 -9 -10 -13
-23 -9 -29 4 -6 1 -7 -7 -2 -8 5 -18 1 -27 -10 -7 -11 -13 -15 -13 -9 0 5 19
27 42 49 23 22 38 34 34 28 -5 -9 -2 -11 9 -6 13 4 14 8 4 14 -10 6 -10 11 1
24 8 9 36 58 62 108 46 87 59 88 15 2 -11 -22 -21 -49 -22 -60 -4 -35 -5 -36
-14 -30 -5 3 -13 0 -17 -6 -4 -8 -3 -9 4 -5 16 10 15 -6 0 -24 -7 -7 6 1 30
19 44 34 53 31 26 -7 -10 -14 -11 -22 -4 -22 7 0 14 9 17 20 3 11 10 20 15 20
5 0 7 4 4 8 -2 4 3 8 13 9 12 1 23 -14 36 -48 17 -44 35 -64 35 -40 0 5 3 17
7 27 4 12 3 15 -5 10 -11 -7 -13 -2 -16 34 -2 31 -41 120 -51 117 -5 -2 -16
-18 -24 -35 -8 -18 -21 -32 -29 -32 -7 0 -12 3 -10 8 3 4 10 22 17 39 7 18 16
31 20 29 16 -10 33 12 23 29 -5 10 -7 26 -5 36 4 15 9 16 24 8 13 -6 19 -6 19
1 0 5 -6 10 -14 10 -20 0 -27 54 -15 108 6 26 12 106 12 177 1 72 3 115 5 97
2 -18 10 -36 18 -39 9 -3 14 -20 14 -49 0 -37 3 -44 20 -44 11 0 20 7 20 15 0
8 5 15 10 15 6 0 10 10 10 23 0 18 -2 19 -10 7 -8 -13 -10 -12 -10 3 0 10 -11
22 -24 27 -14 5 -25 19 -28 34 -5 24 -2 26 27 26 26 0 37 -7 58 -37 15 -21 46
-57 71 -80 l45 -42 16 26 c17 25 17 26 -30 72 -26 25 -44 40 -40 32 5 -9 3
-12 -6 -9 -8 3 -14 9 -14 15 0 6 -17 27 -39 46 -31 29 -44 35 -66 30 -35 -6
-43 7 -35 57 5 31 11 40 27 40 10 0 35 12 54 26 74 57 199 131 205 122 4 -6
14 -8 24 -6 21 4 23 21 22 183 0 191 -2 225 -10 225 -4 0 -4 12 -1 27 6 23 4
25 -15 20 -11 -3 -21 -1 -21 4 0 5 -9 9 -21 9 -11 0 -17 -4 -14 -11 5 -7 -18
-9 -69 -8 -42 1 -76 6 -76 11 0 5 9 6 20 3 11 -4 20 -2 20 4 0 6 -3 10 -7 10
-36 -6 -215 3 -205 10 15 9 18 44 7 79 -6 17 -4 21 7 17 8 -3 21 1 28 10 10
13 9 15 -8 15 -18 0 -20 6 -17 60 1 40 -1 56 -7 48 -7 -9 -8 -6 -5 10 3 13 3
31 -1 40 -5 13 -8 10 -14 -13 -6 -26 -7 -24 -5 12 1 23 -1 39 -4 37 -4 -2 -10
22 -14 53 -5 39 -3 59 4 61 6 2 11 13 11 25 0 18 -2 19 -10 7 -9 -13 -10 -13
-10 0 0 8 -3 26 -7 39 -4 17 -3 22 5 17 9 -5 12 7 11 41 -1 43 -2 45 -9 18 -7
-28 -8 -28 -9 -5 -1 37 10 74 19 60 5 -9 10 -9 14 -1 4 6 -4 13 -19 17 -20 5
-24 10 -19 30 5 19 0 29 -20 45 -14 11 -24 24 -21 29 3 5 0 12 -6 16 -8 5 -9
3 -4 -6 6 -10 4 -12 -9 -7 -10 4 -21 7 -24 7 -4 0 -1 4 6 9 11 7 10 9 -3 14
-11 5 -14 3 -9 -5 5 -8 2 -9 -10 -5 -10 4 -24 7 -33 7 -9 0 -13 6 -10 13 4 11
-19 13 -126 11 -78 -1 -134 2 -138 7 -7 11 -166 -13 -197 -30 -11 -6 -23 -7
-27 -3 -5 4 -6 -1 -2 -10 7 -19 -19 -34 -27 -15 -2 7 -5 4 -5 -5 -1 -10 -6
-18 -12 -18 -5 0 -7 5 -3 11 12 20 -32 -8 -65 -42 -36 -36 -49 -74 -32 -101 7
-11 7 -18 1 -18 -5 0 -10 -7 -10 -15 0 -21 -20 -19 -20 3 -1 9 -11 35 -24 57
-22 38 -26 40 -66 38 -24 -1 -57 -9 -74 -17 -30 -14 -86 -11 -86 4 0 5 7 15
15 24 20 19 19 23 -5 29 -14 4 -21 17 -26 47 -5 30 -13 44 -29 50 -13 5 -25
15 -28 22 -4 8 -6 7 -6 -4 -1 -10 -6 -18 -12 -18 -6 0 -9 7 -5 15 6 17 -29 39
-50 31 -8 -3 -13 -2 -10 3 5 7 -50 22 -134 35 -26 5 -30 4 -15 -3z m50 -20
c-15 -6 -11 -9 21 -14 22 -4 48 -14 59 -23 11 -8 14 -12 6 -8 -11 5 -13 3 -8
-9 3 -10 2 -17 -3 -17 -6 0 -10 6 -10 14 0 9 -7 12 -21 9 -18 -5 -15 -9 20
-25 37 -17 55 -38 32 -38 -5 0 -12 -10 -14 -22 -4 -20 -4 -20 -6 4 -1 24 -6
28 -53 37 -29 6 -64 11 -77 13 -14 2 -26 9 -29 16 -2 8 12 12 50 13 l53 1 -50
11 c-64 13 -77 30 -27 38 20 3 46 6 57 7 20 1 20 0 0 -7z m-256 -82 c1 -51 1
-51 -26 -45 -21 5 -24 4 -13 -4 8 -5 23 -10 32 -10 9 0 19 -10 21 -22 2 -13 5
-2 6 25 1 43 3 47 25 47 23 0 25 -3 28 -77 2 -43 5 -149 6 -235 l3 -158 -26 0
c-18 0 -25 5 -25 19 0 11 4 22 9 25 11 7 9 101 -2 112 -4 4 -7 2 -7 -5 0 -9
-11 -12 -34 -9 -19 2 -32 0 -30 -4 3 -4 18 -8 34 -8 26 0 29 -4 28 -25 -1 -14
-6 -25 -10 -25 -4 0 -8 -21 -8 -48 l0 -48 40 4 c31 3 40 1 40 -11 0 -9 -5 -19
-10 -22 -8 -5 -7 -12 1 -22 18 -21 -4 -33 -63 -33 -25 0 -53 -3 -61 -6 -10 -3
-18 2 -22 15 -4 14 -11 18 -23 14 -16 -6 -16 -5 1 11 9 9 17 24 17 32 0 8 10
14 23 14 12 0 29 5 37 10 11 8 7 9 -16 5 l-31 -5 -6 143 c-4 78 -7 183 -7 232
0 87 1 91 22 92 12 1 26 -3 30 -10 5 -8 8 -6 8 7 0 16 -6 18 -40 13 -35 -4
-40 -2 -40 14 0 11 7 19 18 19 9 1 28 7 42 15 14 8 25 14 26 15 0 0 2 -23 3
-51z m411 47 c0 -2 -7 -7 -16 -10 -8 -3 -12 -2 -9 4 6 10 25 14 25 6z m-340
-26 c0 -16 -7 -20 -30 -20 -49 0 -37 37 13 39 11 1 17 -6 17 -19z m1078 -19
c3 -8 0 -11 -6 -7 -6 3 -14 0 -19 -7 -4 -8 -25 -17 -46 -21 -36 -7 -38 -6 -35
15 5 36 95 52 106 20z m-718 -17 c0 -14 -4 -23 -10 -19 -5 3 -10 15 -10 26 0
10 5 19 10 19 6 0 10 -12 10 -26z m590 16 c0 -5 -4 -10 -10 -10 -5 0 -10 5
-10 10 0 6 5 10 10 10 6 0 10 -4 10 -10z m397 -13 c16 -16 16 -17 -7 -18 l-25
0 23 -11 c12 -6 22 -16 22 -22 0 -8 -24 -8 -85 -2 -59 7 -85 14 -85 23 0 9 19
13 63 15 34 0 46 3 27 5 -70 7 -100 14 -100 25 0 18 147 6 167 -15z m-444 -17
c-3 -12 -8 -19 -11 -16 -5 6 5 36 12 36 2 0 2 -9 -1 -20z m-668 -10 c4 -12 1
-27 -5 -35 -14 -16 -3 -125 12 -125 6 0 7 -26 4 -67 -13 -141 -8 -233 11 -233
6 0 14 -6 17 -12 3 -7 5 8 3 35 -1 26 1 47 5 47 5 0 8 -18 8 -40 0 -29 5 -43
18 -48 12 -5 7 -8 -21 -13 -47 -7 -147 9 -167 27 -12 12 -7 14 35 15 40 0 46
2 28 9 -22 9 -23 14 -24 157 -1 81 -3 183 -5 226 l-3 77 39 0 c30 0 40 -4 45
-20z m172 -17 c-3 -10 -5 -4 -5 12 0 17 2 24 5 18 2 -7 2 -21 0 -30z m540 -10
c-3 -10 -5 -2 -5 17 0 19 2 27 5 18 2 -10 2 -26 0 -35z m132 -25 c1 -24 -3
-28 -28 -28 -23 0 -29 -4 -28 -19 0 -11 5 -17 11 -14 9 6 4 -22 -10 -64 -6
-14 -4 -16 6 -6 7 7 16 29 19 49 4 26 13 39 29 45 19 7 22 5 22 -16 0 -14 -3
-24 -7 -24 -19 3 -33 -2 -33 -11 0 -5 11 -10 25 -10 17 0 25 -5 25 -17 0 -15
-2 -16 -10 -3 -8 13 -10 12 -10 -2 0 -20 -30 -25 -30 -5 0 8 -3 7 -9 -3 -13
-19 -3 -33 19 -27 14 4 19 -3 24 -32 10 -65 8 -81 -14 -81 -17 0 -20 -7 -20
-42 0 -24 7 -56 15 -72 21 -39 19 -56 -5 -51 -11 2 -18 0 -15 -6 4 -5 15 -9
26 -9 15 0 19 8 21 38 l1 37 4 -35 c3 -19 10 -41 16 -48 9 -11 6 -13 -13 -10
-15 2 -24 -2 -23 -8 1 -7 -14 -15 -35 -18 -20 -4 -45 -9 -54 -12 -13 -4 -18 0
-18 15 0 14 8 22 28 27 44 10 49 12 20 13 -25 1 -28 5 -28 35 0 18 5 48 11 66
9 26 9 41 -1 69 -25 67 -22 297 3 272 6 -6 18 -11 27 -10 10 0 9 3 -5 9 -16 7
-17 9 -3 9 9 1 19 5 23 11 3 5 -14 7 -46 3 -41 -5 -51 -3 -47 7 5 16 55 32 81
26 11 -3 17 2 18 12 1 25 17 -27 18 -60z m311 42 c0 -5 -4 -10 -10 -10 -5 0
-10 5 -10 10 0 6 5 10 10 10 6 0 10 -4 10 -10z m-510 -10 c0 -5 -5 -10 -11
-10 -5 0 -7 -5 -3 -12 4 -6 -1 -17 -10 -23 -14 -11 -23 -10 -47 2 -16 8 -29
16 -29 18 0 3 12 11 28 19 31 17 72 21 72 6z m-523 -32 c-3 -8 -6 -5 -6 6 -1
11 2 17 5 13 3 -3 4 -12 1 -19z m960 8 c3 -3 32 -390 33 -433 0 -16 7 -22 27
-25 15 -2 29 -10 31 -19 2 -13 -8 -14 -80 -7 -48 5 -89 15 -98 24 -12 12 -9
14 30 15 25 1 37 3 28 6 -10 2 -18 10 -19 16 0 7 -2 23 -4 37 -3 24 -17 173
-31 329 l-6 74 43 -7 c24 -4 45 -8 46 -10z m73 -18 c0 -36 -4 -35 -14 5 -4 16
-2 27 4 27 5 0 10 -14 10 -32z m-1119 -48 c11 0 19 -7 19 -16 0 -10 -7 -14
-22 -12 -20 3 -23 9 -24 53 -1 36 0 39 3 13 3 -29 9 -38 24 -38z m9 45 c0 -14
-4 -25 -10 -25 -5 0 -10 11 -10 25 0 14 5 25 10 25 6 0 10 -11 10 -25z m691
-57 c3 -54 -2 -65 -21 -43 -7 8 -19 15 -26 15 -8 0 -14 5 -14 12 0 6 -7 3 -15
-8 -11 -13 -14 -14 -13 -4 4 22 20 30 39 19 35 -18 42 -11 36 39 -4 29 -3 41
2 32 5 -8 10 -36 12 -62z m-1294 40 c-3 -8 -6 -5 -6 6 -1 11 2 17 5 13 3 -3 4
-12 1 -19z m1075 -6 c-17 -5 -15 -22 3 -22 8 0 12 -6 9 -14 -7 -18 -44 -17
-44 2 0 24 21 53 33 45 8 -5 8 -8 -1 -11z m-327 -2 c4 -6 -6 -10 -22 -10 -22
0 -25 2 -13 10 19 12 27 12 35 0z m128 -20 c-19 -22 -29 -19 -20 5 4 8 13 15
22 15 13 0 12 -3 -2 -20z m82 10 c3 -5 -1 -10 -9 -10 -8 0 -18 5 -21 10 -3 6
1 10 9 10 8 0 18 -4 21 -10z m-950 -54 c-7 -42 -20 -66 -36 -66 -16 0 -10 32
9 47 16 13 15 14 -5 10 -20 -4 -23 -1 -23 23 0 22 5 29 23 32 34 6 39 -1 32
-46z m1695 42 c0 6 5 12 10 12 6 0 10 -12 10 -26 0 -16 -4 -23 -11 -18 -9 5
-10 -1 -5 -20 4 -15 2 -26 -4 -26 -5 0 -10 6 -10 14 0 7 -3 29 -6 47 -4 26 -3
30 5 19 7 -10 11 -11 11 -2z m-923 -30 c-3 -8 -6 -5 -6 6 -1 11 2 17 5 13 3
-3 4 -12 1 -19z m-27 -8 c0 -15 -33 -21 -42 -8 -13 21 -9 25 17 20 14 -2 25
-8 25 -12z m220 -20 c0 -16 -4 -31 -8 -34 -4 -2 -8 13 -7 34 0 21 3 36 8 33 4
-2 7 -17 7 -33z m193 10 c3 -11 3 -20 1 -20 -2 0 -8 9 -14 20 -6 11 -7 20 -2
20 6 0 12 -9 15 -20z m-90 -22 c-3 -24 -2 -29 5 -19 7 9 17 11 28 6 16 -6 15
-9 -10 -16 -17 -5 -36 -4 -45 1 -12 7 -12 9 -2 10 7 0 11 6 8 14 -4 10 9 36
18 36 1 0 0 -15 -2 -32z m41 17 c-4 -8 -8 -15 -10 -15 -2 0 -4 7 -4 15 0 8 4
15 10 15 5 0 7 -7 4 -15z m153 -37 c-3 -8 -6 -5 -6 6 -1 11 2 17 5 13 3 -3 4
-12 1 -19z m-510 -20 c-3 -7 -5 -2 -5 12 0 14 2 19 5 13 2 -7 2 -19 0 -25z
m-57 12 c0 -5 -5 -10 -11 -10 -5 0 -7 5 -4 10 3 6 8 10 11 10 2 0 4 -4 4 -10z
m325 -10 c-3 -5 -1 -10 5 -10 6 0 17 -6 24 -13 11 -10 11 -15 0 -25 -10 -9
-14 -8 -17 6 -3 12 -5 11 -6 -5 0 -13 4 -23 10 -23 8 0 10 -18 7 -55 -3 -30
-2 -56 2 -57 11 -5 22 -108 11 -108 -5 0 -7 -8 -4 -19 3 -10 0 -22 -6 -26 -8
-4 -10 -30 -5 -81 l7 -74 -42 0 c-27 0 -40 4 -39 13 2 6 -1 11 -7 10 -7 -1 -8
72 -5 212 6 208 7 215 30 240 23 24 47 35 35 15z m-98 -72 c-2 -13 -4 -3 -4
22 0 25 2 35 4 23 2 -13 2 -33 0 -45z m175 10 c2 -21 0 -38 -4 -38 -4 0 -8 21
-7 48 1 52 6 48 11 -10z m173 42 c3 -5 1 -10 -4 -10 -6 0 -11 5 -11 10 0 6 2
10 4 10 3 0 8 -4 11 -10z m-665 -66 c0 -8 -6 -11 -16 -7 -14 5 -16 0 -12 -30
2 -21 0 -37 -4 -37 -9 0 -11 84 -2 93 10 9 34 -4 34 -19z m330 -208 c0 -119
-4 -197 -10 -201 -7 -4 -10 63 -10 194 0 127 4 201 10 201 6 0 10 -71 10 -194z
m502 140 c4 -33 3 -36 -9 -20 -12 16 -13 16 -13 -7 -1 -30 -14 -9 -24 38 -6
28 -4 32 16 35 26 4 25 5 30 -46z m-832 18 c0 -14 -4 -23 -10 -19 -5 3 -10 15
-10 26 0 10 5 19 10 19 6 0 10 -12 10 -26z m498 -169 l-3 -195 37 0 c20 0 40
-4 43 -10 7 -12 -74 -12 -120 0 l-30 8 28 1 c32 1 30 -15 27 219 -1 124 1 172
10 172 8 0 10 -52 8 -195z m613 138 l-5 -48 -6 45 c-6 47 -3 63 8 56 4 -2 5
-26 3 -53z m29 -14 c0 -10 -4 -19 -10 -19 -5 0 -10 12 -10 26 0 14 4 23 10 19
6 -3 10 -15 10 -26z m-596 -78 c-9 -28 -21 4 -16 44 l5 40 8 -35 c5 -19 6 -41
3 -49z m599 -13 c3 -21 2 -38 -2 -38 -4 0 -8 19 -10 42 -3 51 4 48 12 -4z
m-1743 -4 c0 -8 -4 -12 -10 -9 -5 3 -10 10 -10 16 0 5 5 9 10 9 6 0 10 -7 10
-16z m565 -25 c5 -5 17 -9 27 -9 10 0 18 -5 18 -11 0 -5 5 -7 10 -4 6 3 10 1
10 -4 0 -13 5 -14 -109 4 -100 15 -107 17 -96 35 8 13 124 4 140 -11z m-677
-17 c2 -12 -1 -22 -7 -22 -6 0 -8 7 -4 16 3 9 0 20 -8 26 -12 8 -11 9 1 5 8
-2 16 -13 18 -25z m239 12 c-3 -3 -12 -4 -19 -1 -8 3 -5 6 6 6 11 1 17 -2 13
-5z m1005 -43 c2 -17 1 -28 -4 -25 -8 5 -12 54 -4 54 2 0 6 -13 8 -29z m283
20 c-3 -6 2 -14 12 -20 16 -8 15 -10 -7 -15 -76 -16 -118 -17 -123 -2 -4 11 9
18 56 29 34 8 63 15 65 16 2 0 1 -3 -3 -8z m279 0 c-2 -2 1 -10 8 -18 6 -7 9
-15 7 -18 -6 -6 -157 10 -165 17 -17 18 13 27 80 25 41 -1 72 -4 70 -6z m168
-21 c5 -33 -6 -28 -17 8 -3 12 -2 22 3 22 5 0 12 -14 14 -30z m-792 10 c0 -5
-5 -10 -11 -10 -6 0 -8 -9 -4 -20 4 -11 2 -20 -4 -20 -12 0 -14 20 -5 44 7 18
24 22 24 6z m-1240 -9 c0 -33 -14 -41 -71 -41 -56 0 -59 1 -59 25 0 24 2 25
65 25 36 0 65 -4 65 -9z m68 -58 l-1 -58 -7 50 c-4 28 -8 44 -8 36 -1 -8 -5
-12 -8 -8 -9 9 3 37 16 37 6 0 9 -24 8 -57z m1942 31 c0 -2 -9 0 -20 6 -11 6
-20 13 -20 16 0 2 9 0 20 -6 11 -6 20 -13 20 -16z m-2243 -16 c-3 -7 -5 -2 -5
12 0 14 2 19 5 13 2 -7 2 -19 0 -25z m-17 -88 c0 -93 -1 -100 -20 -100 -13 0
-20 7 -20 20 0 11 7 20 15 20 12 0 15 16 15 80 0 44 2 80 5 80 3 0 5 -45 5
-100z m1920 85 c-7 -8 -19 -15 -26 -15 -8 0 -14 -4 -14 -10 0 -5 -7 -6 -17 -3
-11 4 -14 3 -9 -5 4 -7 1 -12 -8 -12 -9 0 -16 -4 -16 -10 0 -5 -7 -10 -15 -10
-14 0 -94 -47 -105 -61 -3 -4 -14 -9 -25 -11 -22 -3 -24 9 -10 70 5 22 4 32
-4 32 -7 0 -9 -5 -5 -12 4 -7 3 -8 -4 -4 -14 8 -52 -14 -52 -31 0 -7 -11 -13
-25 -13 -65 0 7 58 77 63 16 1 28 5 28 9 0 6 25 12 125 32 11 2 42 4 69 5 42
1 47 -1 36 -14z m115 5 c-12 -4 -27 -15 -34 -24 -18 -22 -26 -20 -45 9 l-16
25 57 -1 c41 0 52 -3 38 -9z m-1789 -345 c-4 -181 -9 -360 -12 -397 -5 -59 -4
-67 13 -71 10 -3 -10 -5 -44 -6 -34 0 -64 2 -66 7 -7 13 16 282 25 282 4 0 8
16 8 36 0 19 5 45 11 56 8 15 8 19 0 14 -7 -4 -11 1 -11 13 0 11 -5 23 -11 27
-6 3 -9 20 -6 38 3 17 3 25 0 19 -2 -7 -11 -13 -19 -13 -8 0 -14 -9 -14 -20 0
-11 5 -20 10 -20 19 0 10 -37 -17 -73 -31 -41 -54 -50 -29 -12 9 14 19 46 22
72 3 27 8 57 9 68 2 11 4 87 4 168 l1 148 66 -3 66 -2 -6 -331z m1235 268 c-9
-15 -10 -12 -11 18 0 20 3 39 8 43 11 12 14 -42 3 -61z m75 20 c-11 -11 -19 6
-11 24 8 17 8 17 12 0 3 -10 2 -21 -1 -24z m378 -5 c-4 -13 -14 -28 -22 -34
-8 -6 -12 -16 -8 -22 4 -7 3 -12 -3 -12 -5 0 -12 6 -14 13 -3 7 -6 5 -6 -5 -1
-12 -6 -15 -18 -11 -10 4 -14 2 -10 -4 5 -7 -1 -9 -15 -5 l-22 5 22 8 c12 5
22 16 22 24 0 9 5 13 10 10 6 -3 10 2 10 13 0 10 10 24 23 30 33 16 39 14 31
-10z m-1621 -68 c-8 -9 -21 24 -15 39 5 12 8 10 12 -9 4 -14 5 -27 3 -30z
m1967 20 c0 -5 -5 -10 -11 -10 -5 0 -7 5 -4 10 3 6 8 10 11 10 2 0 4 -4 4 -10z
m-1974 -40 c8 0 14 -4 14 -10 0 -5 -7 -7 -15 -4 -8 4 -15 1 -15 -4 0 -6 7 -13
15 -15 11 -4 10 -4 -2 -3 -12 1 -19 11 -20 31 -1 17 0 24 3 18 3 -7 12 -13 20
-13z m88 14 c9 -3 13 -11 9 -17 -4 -6 0 -8 9 -4 9 3 30 -5 50 -20 18 -14 25
-23 15 -19 -10 3 -23 6 -28 6 -6 0 -7 5 -3 12 5 8 2 9 -9 5 -10 -4 -27 3 -44
18 -28 25 -28 30 1 19z m1407 -8 c-10 -12 -6 -15 18 -21 17 -4 34 -11 38 -17
4 -8 0 -9 -13 -4 -10 5 -31 12 -46 18 -22 8 -25 12 -15 23 16 19 33 19 18 1z
m-721 -1 c0 -8 -61 -36 -72 -33 -6 2 4 12 23 21 35 17 49 21 49 12z m510 -16
c-25 -4 -63 -7 -85 -7 l-40 1 45 7 c25 4 63 7 85 7 l40 0 -45 -8z m85 -4 c-35
-16 -15 -19 33 -6 20 6 30 6 27 0 -4 -5 -14 -9 -23 -10 -10 -1 -7 -4 8 -8 20
-6 26 -3 32 13 4 15 6 16 7 5 1 -11 17 -21 46 -29 47 -13 73 -32 33 -23 -21 4
-21 3 -5 -7 10 -6 25 -9 33 -6 9 3 12 2 9 -5 -4 -6 -1 -10 6 -8 8 1 27 1 43 0
23 -1 27 -5 23 -21 -3 -11 -1 -20 4 -20 5 0 9 8 10 18 0 14 2 14 8 -3 5 -11 6
-24 3 -29 -3 -5 2 -7 11 -3 16 6 32 -8 32 -27 0 -5 5 -11 10 -13 6 -2 12 11
13 29 4 44 12 49 12 7 0 -27 8 -43 35 -69 18 -18 33 -38 32 -44 -1 -6 5 -9 13
-8 8 2 12 0 8 -3 -11 -11 10 -45 25 -40 6 3 25 -13 42 -35 17 -24 35 -38 43
-35 7 2 10 0 7 -5 -3 -6 -13 -10 -21 -10 -19 0 -19 1 20 -77 38 -76 70 -177
63 -196 -4 -7 -6 -6 -6 4 -2 33 -41 140 -77 210 -34 65 -101 157 -158 215 -43
44 -154 121 -214 149 -34 16 -62 32 -62 36 0 5 -7 5 -17 2 -12 -5 -14 -3 -8 7
6 10 4 12 -7 8 -8 -4 -41 0 -74 8 -32 7 -75 14 -94 15 -29 1 -25 3 19 10 30 5
57 12 60 14 2 3 9 5 15 4 6 0 -2 -7 -19 -14z m618 8 c-7 -2 -19 -2 -25 0 -7 3
-2 5 12 5 14 0 19 -2 13 -5z m112 -3 c4 -6 -11 -7 -42 -3 -63 8 -67 13 -10 13
25 0 49 -4 52 -10z m-1465 -30 c12 -8 12 -10 -5 -10 -11 0 -44 -3 -72 -6 -35
-5 -53 -3 -53 4 0 10 25 15 95 20 11 1 27 -3 35 -8z m47 4 c-3 -3 -12 -4 -19
-1 -8 3 -5 6 6 6 11 1 17 -2 13 -5z m1448 -14 c-3 -5 -12 -10 -20 -10 -8 0
-17 5 -20 10 -4 6 5 10 20 10 15 0 24 -4 20 -10z m60 0 c3 -5 1 -10 -4 -10 -6
0 -11 5 -11 10 0 6 2 10 4 10 3 0 8 -4 11 -10z m-2485 -98 c0 -152 -11 -281
-24 -278 -6 2 -8 1 -3 -1 10 -6 8 -83 -3 -108 -5 -11 -9 -15 -9 -8 -1 7 -8 10
-16 7 -11 -5 -15 1 -15 25 0 36 17 41 30 9 8 -22 9 -22 9 5 1 16 -4 27 -12 27
-13 0 -16 124 -9 348 2 70 3 72 27 72 25 0 25 0 25 -98z m717 81 c-20 -2 -52
-2 -70 0 -17 2 0 4 38 4 39 0 53 -2 32 -4z m1376 -10 c-7 -2 -19 -2 -25 0 -7
3 -2 5 12 5 14 0 19 -2 13 -5z m193 -15 c-3 -13 -6 -71 -6 -130 0 -115 -14
-145 -26 -56 l-7 51 -19 -22 c-18 -23 -18 -23 -19 40 0 35 -2 72 -4 82 -3 14
4 17 33 17 19 0 32 3 28 7 -4 4 -23 6 -43 5 -63 -5 -15 17 61 27 4 0 6 -9 2
-21z m-253 -9 c-4 -13 -9 -17 -15 -11 -11 11 -3 32 12 32 4 0 6 -9 3 -21z
m-979 -21 c-9 -14 -23 2 -17 18 4 12 8 13 14 3 4 -7 5 -17 3 -21z m950 17 c4
-10 -1 -15 -14 -15 -20 0 -26 11 -13 23 10 11 20 8 27 -8z m111 5 c-3 -5 -12
-10 -18 -10 -7 0 -6 4 3 10 19 12 23 12 15 0z m32 -22 c-3 -8 -6 -5 -6 6 -1
11 2 17 5 13 3 -3 4 -12 1 -19z m509 -103 c0 -19 -4 -36 -10 -38 -7 -3 -12 15
-13 46 -2 39 0 48 9 39 7 -7 13 -28 14 -47z m-219 23 c-3 -8 -6 -5 -6 6 -1 11
2 17 5 13 3 -3 4 -12 1 -19z m-1507 -45 c-30 -32 -56 -59 -57 -62 -2 -2 -6 4
-10 14 -5 14 3 26 27 47 19 15 39 28 46 28 6 0 17 7 24 15 7 8 15 15 18 15 4
0 -18 -26 -48 -57z m1207 35 c-3 -8 -6 -5 -6 6 -1 11 2 17 5 13 3 -3 4 -12 1
-19z m-2007 -123 c0 -28 -4 -35 -20 -35 -25 0 -26 26 -3 52 22 24 23 23 23
-17z m2081 13 c11 -21 11 -22 -4 -9 -10 7 -17 17 -17 22 0 15 9 10 21 -13z
m84 -27 c10 -17 -12 -21 -25 -6 -10 12 -10 15 3 15 9 0 18 -4 22 -9z m148 2
c-7 -2 -21 -2 -30 0 -10 3 -4 5 12 5 17 0 24 -2 18 -5z m-1800 -28 c-3 -9 -8
-14 -10 -11 -3 3 -2 9 2 15 9 16 15 13 8 -4z m1734 -6 c-12 -7 -27 -7 -45 0
-25 9 -24 9 18 10 36 0 41 -2 27 -10z m233 -9 c22 -7 19 -8 -15 -8 -22 -1 -58
3 -80 7 -40 9 -40 9 15 9 30 0 66 -4 80 -8z m-310 -20 c0 -5 -10 -10 -22 -10
-19 0 -20 2 -8 10 19 13 30 13 30 0z m-1540 -14 c0 -8 -7 -16 -15 -20 -12 -4
-13 -2 -2 14 14 24 17 25 17 6z m1718 -3 c-15 -2 -42 -2 -60 0 -18 2 -6 4 27
4 33 0 48 -2 33 -4z m-2201 -35 c-3 -7 -5 -2 -5 12 0 14 2 19 5 13 2 -7 2 -19
0 -25z m2260 6 c-3 -3 -12 -4 -19 -1 -8 3 -5 6 6 6 11 1 17 -2 13 -5z m-7 -20
c0 -7 -160 -104 -172 -104 -10 0 -18 10 -20 23 -2 15 -11 23 -29 25 -21 2 -49
34 -49 55 0 1 61 2 135 2 74 0 135 -1 135 -1z m-2243 -51 c-3 -10 -5 -2 -5 17
0 19 2 27 5 18 2 -10 2 -26 0 -35z m-20 -15 c-3 -8 -6 -5 -6 6 -1 11 2 17 5
13 3 -3 4 -12 1 -19z m334 -25 c-12 -20 -14 -14 -5 12 4 9 9 14 11 11 3 -2 0
-13 -6 -23z m-634 -55 c-2 -13 -4 -3 -4 22 0 25 2 35 4 23 2 -13 2 -33 0 -45z
m318 -66 c-3 -3 -11 0 -18 8 -9 10 -9 11 1 6 9 -5 12 9 14 56 l2 63 3 -64 c2
-35 1 -66 -2 -69z m-292 48 c-3 -11 -7 -20 -9 -20 -2 0 -4 9 -4 20 0 11 4 20
9 20 5 0 7 -9 4 -20z m431 9 c-12 -4 -24 -14 -27 -23 -4 -9 -11 -16 -17 -16
-7 0 -8 6 0 19 9 17 6 20 -22 24 -18 2 -6 4 27 4 40 0 53 -2 39 -8z m143 -41
c-3 -8 -6 -5 -6 6 -1 11 2 17 5 13 3 -3 4 -12 1 -19z m-339 -33 c2 -24 -1 -25
-48 -25 -47 0 -50 2 -50 25 0 23 3 25 48 25 44 0 48 -2 50 -25z m152 1 c0 -10
13 -16 38 -19 20 -2 3 -4 -38 -4 -41 0 -63 2 -47 4 15 2 27 11 27 19 0 8 5 14
10 14 6 0 10 -6 10 -14z m177 -8 c-3 -8 -6 -5 -6 6 -1 11 2 17 5 13 3 -3 4
-12 1 -19z m1760 -20 c-3 -7 -5 -2 -5 12 0 14 2 19 5 13 2 -7 2 -19 0 -25z
m-1779 -128 c0 -16 -3 -30 -8 -30 -9 0 -20 47 -12 55 12 12 19 3 20 -25z m-28
0 c0 -5 -4 -10 -10 -10 -5 0 -10 5 -10 10 0 6 5 10 10 10 6 0 10 -4 10 -10z
m1785 -299 c-3 -12 -10 -21 -15 -21 -5 0 -4 11 2 25 13 29 23 26 13 -4z
m-2455 11 c0 -5 -11 -19 -26 -32 -21 -21 -27 -22 -34 -10 -12 18 -7 36 9 33
32 -8 36 -7 34 5 -2 6 2 12 7 12 6 0 10 -4 10 -8z m-78 -76 c2 -2 -14 -22 -34
-44 -36 -40 -38 -41 -36 -16 2 15 13 33 25 42 13 8 23 20 22 26 -4 29 3 40 11
18 5 -12 11 -24 12 -26z"/>
<path d="M2495 3150 c3 -5 8 -10 11 -10 2 0 4 5 4 10 0 6 -5 10 -11 10 -5 0
-7 -4 -4 -10z"/>
<path d="M2580 3123 c0 -53 -11 -73 -38 -73 -18 0 -23 -3 -15 -11 5 -5 22 -7
37 -3 24 6 26 10 26 60 0 30 -2 54 -5 54 -3 0 -5 -12 -5 -27z"/>
<path d="M2500 3105 c-7 -9 -8 -15 -2 -15 5 0 12 7 16 15 3 8 4 15 2 15 -2 0
-9 -7 -16 -15z"/>
<path d="M2530 3098 c0 -4 9 -8 20 -8 11 0 20 4 20 9 0 6 -9 9 -20 8 -11 -1
-20 -5 -20 -9z"/>
<path d="M2543 2913 c9 -2 25 -2 35 0 9 3 1 5 -18 5 -19 0 -27 -2 -17 -5z"/>
<path d="M2514 2818 c-11 -32 -14 -51 -6 -44 3 4 7 12 8 19 1 7 5 20 9 30 4 9
5 17 2 17 -3 0 -9 -10 -13 -22z"/>
<path d="M2530 2801 c0 -6 5 -13 10 -16 6 -3 10 1 10 9 0 9 -4 16 -10 16 -5 0
-10 -4 -10 -9z"/>
<path d="M2549 2693 c-8 -9 -9 -14 -3 -10 7 4 14 -2 17 -14 3 -12 10 -18 16
-14 7 4 8 12 1 24 -5 10 -6 21 -3 25 3 3 2 6 -4 6 -6 0 -17 -8 -24 -17z"/>
<path d="M3656 2787 c3 -10 9 -15 12 -12 3 3 0 11 -7 18 -10 9 -11 8 -5 -6z"/>
<path d="M3321 2864 c0 -11 3 -14 6 -6 3 7 2 16 -1 19 -3 4 -6 -2 -5 -13z"/>
<path d="M3325 2830 c3 -5 8 -10 11 -10 2 0 4 5 4 10 0 6 -5 10 -11 10 -5 0
-7 -4 -4 -10z"/>
<path d="M3700 2826 c0 -2 7 -6 15 -10 8 -3 15 -1 15 4 0 6 -7 10 -15 10 -8 0
-15 -2 -15 -4z"/>
<path d="M3794 2306 c11 -9 24 -16 30 -16 12 0 7 5 -24 19 -24 11 -24 11 -6
-3z"/>
<path d="M3960 2185 c19 -19 36 -35 39 -35 3 0 -10 16 -29 35 -19 19 -36 35
-39 35 -3 0 10 -16 29 -35z"/>
<path d="M4075 2053 c15 -24 30 -43 32 -43 7 0 -31 61 -46 73 -8 7 -2 -7 14
-30z"/>
<path d="M3758 3263 c12 -2 32 -2 45 0 12 2 2 4 -23 4 -25 0 -35 -2 -22 -4z"/>
<path d="M4616 3128 c4 -7 25 -39 46 -72 21 -32 32 -56 25 -53 -11 4 -13 -5
-9 -44 5 -49 0 -55 -32 -43 -21 8 -20 33 1 63 12 18 13 23 2 19 -8 -3 -18 -17
-24 -32 -11 -31 0 -56 33 -71 27 -12 31 -31 34 -140 l2 -90 6 95 c6 92 6 90 8
-52 1 -102 -2 -149 -10 -154 -8 -5 -9 2 -5 25 6 30 5 31 -21 25 -100 -22 -132
-35 -132 -55 0 -22 22 -33 88 -44 36 -6 42 -4 43 12 3 33 27 -250 28 -319 1
-39 -3 -68 -9 -68 -6 0 -10 -28 -10 -65 0 -51 3 -65 15 -65 12 0 15 13 15 60
0 33 4 60 10 60 5 0 9 -3 9 -7 -1 -5 -1 -32 0 -60 1 -50 3 -53 26 -53 24 0 25
3 25 54 0 35 -5 60 -15 70 -10 10 -15 35 -15 78 0 92 -12 198 -21 198 -5 0 -9
-59 -9 -132 0 -72 -2 -129 -4 -127 -2 2 -5 92 -8 199 -4 151 -3 181 5 133 8
-53 13 -63 30 -63 17 0 19 5 14 40 l-5 40 101 -1 c56 -1 92 -4 80 -6 -13 -2
-23 -8 -23 -13 0 -5 7 -7 15 -4 9 4 15 0 15 -9 0 -9 -8 -18 -17 -20 -13 -3
-11 -5 6 -6 18 -1 22 -5 18 -21 -3 -10 0 -21 7 -23 16 -5 9 -329 -7 -339 -9
-6 -8 -8 1 -8 10 0 13 -14 10 -55 -1 -30 0 -55 4 -55 4 0 9 -46 11 -102 3 -57
7 -116 9 -133 3 -16 3 -20 1 -7 -2 12 -9 22 -15 22 -6 0 -7 -8 -3 -17 4 -10 9
-34 12 -53 l6 -35 -29 25 c-16 14 -33 29 -39 33 -6 6 -1 6 13 2 17 -5 22 -2
22 13 0 23 -45 39 -64 23 -8 -7 -19 -2 -35 15 -17 17 -27 22 -35 14 -5 -5 -18
-10 -28 -10 -16 0 -18 9 -18 68 0 120 -11 202 -28 202 -12 0 -14 -20 -10 -125
2 -69 0 -125 -4 -125 -4 0 -8 56 -8 125 0 77 -4 125 -10 125 -6 0 -9 -47 -8
-127 1 -79 -2 -142 -10 -163 l-11 -35 3 33 c3 34 -6 48 -24 37 -8 -5 -7 -11 1
-21 6 -8 9 -17 5 -21 -3 -3 -6 -1 -6 5 0 7 -4 12 -9 12 -5 0 -7 -9 -4 -21 3
-11 1 -30 -5 -42 -6 -12 -16 -58 -22 -102 -15 -97 -21 -113 -39 -91 -19 22
-24 20 -50 -15 -13 -18 -19 -29 -13 -25 6 4 20 -1 31 -11 21 -17 21 -18 -24
-63 -42 -43 -44 -46 -25 -57 11 -7 21 -9 25 -3 3 5 1 11 -5 15 -5 3 -10 11
-10 17 0 7 5 6 14 -1 12 -10 19 -8 35 8 24 24 33 26 30 9 -4 -30 2 -58 12 -58
5 0 7 6 3 13 -5 8 -2 8 9 -2 9 -7 17 -19 17 -25 0 -6 -5 -4 -10 4 -5 8 -10 10
-10 4 0 -5 -27 -26 -61 -44 l-60 -35 35 -28 c39 -31 37 -14 16 -228 -6 -64 -6
-108 1 -133 9 -34 7 -42 -21 -87 -18 -27 -36 -49 -41 -49 -5 0 -26 22 -46 49
-50 66 -80 61 -82 -11 -1 -16 -7 -28 -13 -29 -29 -2 61 -20 102 -20 31 0 41
-2 30 -9 -11 -7 -5 -13 30 -29 37 -16 54 -18 99 -11 29 5 56 11 58 14 8 7 -28
95 -50 122 -20 25 -20 26 0 52 13 17 32 84 52 177 17 82 36 152 42 156 13 8 3
46 -18 71 -8 9 -17 29 -19 45 -5 30 -3 31 59 61 18 9 5 -28 -15 -43 -22 -15
-22 -17 -5 -29 14 -11 17 -29 17 -102 1 -58 6 -98 15 -114 11 -19 14 -21 15
-7 0 9 5 17 11 17 8 0 7 5 -1 15 -9 10 -14 62 -16 158 -2 97 0 123 5 82 4 -33
11 -68 15 -77 10 -21 28 -14 19 7 -8 23 11 18 37 -10 l23 -25 -22 -8 c-21 -8
-20 -10 28 -55 28 -26 51 -50 51 -52 0 -3 -14 -12 -31 -20 -17 -9 -29 -19 -26
-21 3 -3 40 18 82 46 49 31 82 47 89 41 13 -10 46 -11 46 0 0 8 160 113 164
107 1 -1 24 -38 50 -81 39 -67 46 -84 40 -113 l-6 -34 51 0 c52 0 61 6 39 28
-9 9 -9 12 1 12 6 0 28 -17 47 -38 l36 -37 -35 50 c-19 28 -42 64 -52 80 l-19
30 38 -35 c36 -33 82 -106 78 -123 -2 -8 21 -5 28 4 3 4 29 -15 58 -41 44 -39
55 -56 59 -88 4 -30 11 -42 27 -46 31 -8 148 -7 144 2 -1 4 -30 32 -63 63 -51
48 -64 56 -90 52 -27 -4 -42 8 -174 141 -140 141 -144 146 -127 165 17 19 16
20 -24 46 -27 17 -40 31 -36 41 3 8 1 23 -6 33 -7 12 -8 23 -1 36 15 25 -127
258 -179 294 -20 14 -42 36 -49 49 -7 12 -19 22 -27 22 -11 0 -12 -3 -3 -13 6
-8 8 -17 4 -20 -3 -4 -1 -7 6 -7 9 0 9 -5 0 -21 -8 -16 -8 -24 2 -33 9 -8 10
-8 5 2 -9 15 -1 15 27 1 19 -9 18 -7 -3 10 -21 18 -22 21 -7 21 32 0 75 -38
108 -98 18 -31 53 -88 77 -126 24 -38 37 -66 29 -63 -12 4 -14 -3 -11 -38 4
-37 2 -43 -11 -39 -18 7 -19 16 -4 31 8 8 6 14 -10 22 -15 9 -19 18 -15 39 4
21 -9 50 -56 130 -33 56 -63 102 -65 102 -3 0 22 -54 55 -120 56 -111 65 -145
28 -102 -8 9 -41 61 -73 115 -32 53 -59 97 -62 97 -2 0 10 -25 27 -55 36 -63
23 -75 -16 -15 -28 42 -41 52 -30 23 4 -10 3 -14 -1 -9 -4 4 -9 35 -11 69 -1
34 -4 85 -5 112 -2 28 -4 83 -5 123 -2 65 -4 72 -22 72 -18 0 -20 6 -18 58 l2
57 3 -52 c3 -45 7 -53 24 -53 16 0 19 7 19 54 0 30 -4 56 -10 58 -6 2 -11 75
-12 185 -3 169 -2 183 16 196 24 18 15 44 -16 49 -25 5 0 9 162 29 124 15 245
49 245 69 0 31 -166 59 -352 60 -66 0 -73 2 -73 20 0 14 -6 20 -22 19 -13 0
-17 -3 -10 -6 6 -2 12 -11 12 -18 0 -15 -18 -19 -147 -32 -96 -10 -89 -20 -92
135 -2 72 -6 99 -17 105 -18 10 -18 41 1 57 17 14 20 56 5 65 -5 3 -7 11 -4
18 2 7 -3 22 -13 33 -21 23 -38 50 -55 82 -6 12 -15 22 -20 22 -5 0 -6 -6 -2
-12z m351 -673 c0 -8 -4 -15 -9 -15 -4 0 -8 7 -8 15 0 8 4 15 8 15 5 0 9 -7 9
-15z m40 -11 c-3 -3 -12 -4 -19 -1 -8 3 -5 6 6 6 11 1 17 -2 13 -5z m-34 -34
c3 -11 1 -18 -4 -14 -5 3 -9 12 -9 20 0 20 7 17 13 -6z m4 -327 c-2 -21 -4 -6
-4 32 0 39 2 55 4 38 2 -18 2 -50 0 -70z m10 -285 c-2 -18 -4 -6 -4 27 0 33 2
48 4 33 2 -15 2 -42 0 -60z m-270 -115 c-3 -10 -5 -4 -5 12 0 17 2 24 5 18 2
-7 2 -21 0 -30z m123 -22 c3 -4 18 -15 34 -25 22 -14 26 -20 15 -27 -11 -7 -2
-20 39 -55 72 -63 81 -82 51 -105 -13 -10 -18 -19 -11 -19 8 0 12 -17 12 -52
0 -40 -3 -49 -11 -38 -7 10 -9 11 -7 2 8 -32 23 -12 29 38 l6 55 1 -52 c2 -46
5 -53 22 -53 17 0 20 7 20 52 0 33 -6 59 -17 72 -9 12 20 -15 64 -59 l80 -80
-44 -62 c-45 -64 -54 -84 -28 -63 10 9 15 9 15 1 0 -6 -4 -12 -10 -12 -5 -1
-15 -2 -20 -3 -6 0 -14 -7 -18 -13 -4 -7 -19 -14 -32 -15 -25 -3 -25 -2 -26
82 l-2 85 13 -75 12 -75 2 78 c1 69 -1 77 -18 77 -15 0 -19 -11 -24 -67 -4
-38 -8 -88 -8 -113 -1 -25 -4 -35 -6 -22 -3 15 -11 22 -28 22 -19 0 -23 -4
-18 -17 3 -10 -29 16 -71 57 l-76 74 0 143 0 143 37 33 c32 30 35 36 22 50
-13 14 -16 13 -35 -4 l-22 -20 -7 28 c-3 15 -11 31 -17 34 -5 3 10 6 34 6 23
0 45 -2 48 -6z m-150 -16 c-33 -19 -50 -18 -26 0 11 8 27 15 35 15 10 -1 7 -6
-9 -15z m27 -195 c0 -69 -2 -130 -5 -137 -2 -6 -17 -16 -34 -22 -23 -8 -33 -7
-45 4 -8 8 -18 13 -23 10 -4 -3 -6 4 -3 14 3 11 11 17 18 15 7 -3 16 0 20 5 3
6 11 8 17 5 7 -4 6 -9 -1 -14 -9 -5 -8 -10 2 -19 11 -9 17 -8 28 6 12 14 12
16 0 8 -10 -6 -12 -4 -6 4 4 8 -4 24 -20 41 l-28 29 37 32 c22 20 36 42 36 56
0 31 -10 29 -50 -12 -18 -19 -35 -33 -37 -31 -2 2 3 37 12 77 12 55 24 80 43
98 l27 24 6 -34 c3 -19 6 -90 6 -159z m22 15 c-4 -11 -7 25 -7 80 l1 100 7
-80 c3 -44 3 -89 -1 -100z m271 60 c13 -14 21 -25 18 -25 -2 0 -15 11 -28 25
-13 14 -21 25 -18 25 2 0 15 -11 28 -25z m125 -60 l18 -30 -21 19 c-12 11 -22
26 -22 34 0 17 -1 18 25 -23z m-60 -5 c10 -11 16 -20 13 -20 -3 0 -13 9 -23
20 -10 11 -16 20 -13 20 3 0 13 -9 23 -20z m-441 -80 c9 -13 9 -13 -5 -3 -9 7
-18 10 -21 8 -3 -3 -3 7 0 22 5 23 7 24 10 8 2 -11 9 -27 16 -35z m556 -111
c0 -6 5 -7 13 -2 13 8 37 13 37 8 0 -2 -27 -21 -60 -43 -33 -22 -60 -38 -60
-35 0 2 12 22 28 44 27 38 42 49 42 28z m82 -22 c3 4 3 3 2 -4 -2 -7 3 -19 11
-26 11 -11 11 -17 2 -27 -7 -8 -8 -10 -1 -7 6 4 24 -8 40 -26 l29 -32 -32 29
c-39 35 -43 27 -9 -17 13 -18 29 -43 36 -57 l13 -25 -25 23 c-13 12 -28 20
-31 17 -4 -3 -5 -2 -2 2 3 3 -11 35 -31 70 -19 35 -30 63 -23 63 8 0 7 5 -2
18 -13 15 -12 16 3 4 9 -7 18 -9 20 -5z m-644 -29 c-3 -10 25 -30 55 -41 9 -3
-11 -127 -20 -127 -3 0 -21 14 -40 30 -19 17 -37 28 -42 26 -18 -11 3 71 23
87 20 18 20 18 -11 1 -20 -11 -33 -26 -33 -37 0 -16 -2 -17 -15 -7 -11 9 -12
17 -6 23 8 8 77 52 89 56 1 1 1 -4 0 -11z m-8 -183 l34 -35 -17 -88 c-25 -123
-67 -176 -85 -108 -9 31 -3 112 11 171 3 11 6 37 6 58 1 20 5 37 9 37 4 0 23
-16 42 -35z"/>
<path d="M4962 1390 c0 -19 2 -27 5 -17 2 9 2 25 0 35 -3 9 -5 1 -5 -18z"/>
<path d="M5260 1221 c0 -6 4 -13 10 -16 6 -3 7 1 4 9 -7 18 -14 21 -14 7z"/>
<path d="M4728 2958 c3 -30 0 -43 -12 -50 -19 -11 -22 -39 -3 -35 6 1 18 10
26 21 13 17 17 14 57 -50 24 -38 44 -66 44 -61 0 11 -20 45 -64 106 -21 29
-34 51 -27 47 18 -12 13 29 -7 47 -16 15 -17 14 -14 -25z"/>
<path d="M4954 2870 c0 -58 1 -81 3 -52 2 28 2 76 0 105 -2 28 -3 5 -3 -53z"/>
<path d="M4146 2935 c-3 -8 -1 -15 4 -15 6 0 10 7 10 15 0 8 -2 15 -4 15 -2 0
-6 -7 -10 -15z"/>
<path d="M3071 2764 c0 -11 3 -14 6 -6 3 7 2 16 -1 19 -3 4 -6 -2 -5 -13z"/>
<path d="M2370 2712 c0 -6 -8 -13 -17 -15 -16 -4 -16 -5 -1 -6 18 -1 34 16 24
26 -3 4 -6 1 -6 -5z"/>
<path d="M1910 2680 c0 -5 5 -10 10 -10 6 0 10 5 10 10 0 6 -4 10 -10 10 -5 0
-10 -4 -10 -10z"/>
<path d="M1940 2681 c0 -10 26 -9 36 2 4 4 -2 7 -14 7 -12 0 -22 -4 -22 -9z"/>
<path d="M1830 2673 c-8 -2 -22 -7 -30 -10 -8 -4 -18 -5 -22 -5 -5 1 -8 -3 -8
-9 0 -5 -5 -7 -12 -3 -7 4 -8 3 -4 -4 5 -9 17 -8 43 3 19 8 51 15 69 15 19 0
34 5 34 10 0 10 -43 12 -70 3z"/>
<path d="M1720 2580 c-9 -6 -9 -9 -1 -11 8 -3 14 -41 16 -109 2 -61 8 -106 15
-108 6 -2 10 -54 10 -141 0 -166 -7 -231 -26 -231 -8 0 -13 -3 -13 -7 4 -28
-2 -113 -8 -110 -5 3 -8 -26 -8 -64 0 -38 3 -69 8 -69 9 0 10 12 7 78 -1 32 2
52 9 52 6 0 11 -13 11 -30 0 -23 4 -30 20 -30 16 0 20 7 20 33 1 17 5 182 10
366 6 259 11 336 22 342 10 7 10 9 -2 9 -52 0 -55 -6 -53 -103 l1 -92 -9 90
c-7 56 -7 96 -1 105 11 19 -9 42 -28 30z"/>
<path d="M3278 2383 c6 -2 18 -2 25 0 6 3 1 5 -13 5 -14 0 -19 -2 -12 -5z"/>
<path d="M1494 2245 c0 -60 1 -84 3 -52 2 32 2 81 0 110 -2 29 -3 3 -3 -58z"/>
<path d="M1715 2068 c4 -24 12 -47 18 -53 7 -7 8 -4 3 8 -3 10 -6 34 -6 53 0
19 -5 34 -11 34 -7 0 -8 -14 -4 -42z"/>
<path d="M2577 2053 c-4 -3 -7 -11 -7 -17 0 -6 5 -5 12 2 6 6 9 14 7 17 -3 3
-9 2 -12 -2z"/>
<path d="M2666 1948 c-43 -90 -61 -146 -76 -228 -7 -36 -14 -75 -16 -87 -3
-17 -12 -23 -32 -24 -17 -1 -20 -3 -9 -6 13 -3 17 -15 17 -49 0 -38 3 -45 18
-42 21 4 31 78 10 78 -8 0 -9 3 -3 8 6 4 18 52 27 107 17 98 57 214 99 281 11
19 16 34 10 34 -6 0 -26 -33 -45 -72z"/>
<path d="M1472 1745 c0 -16 2 -22 5 -12 2 9 2 23 0 30 -3 6 -5 -1 -5 -18z"/>
<path d="M1368 1698 c-164 -146 -386 -363 -381 -372 3 -6 2 -8 -2 -3 -5 4 -16
0 -26 -9 -16 -14 -16 -18 -4 -31 12 -12 18 -12 34 -1 28 19 129 114 278 259
73 71 139 129 148 129 8 0 15 6 15 13 0 8 4 7 10 -3 8 -12 10 -12 10 5 0 11
-10 25 -24 31 -21 10 -29 7 -58 -18z"/>
<path d="M1555 1706 c15 -22 15 -27 0 -56 -9 -18 -14 -34 -11 -38 3 -3 6 1 6
8 0 9 5 7 15 -6 15 -19 15 -19 8 1 -6 18 -5 18 10 6 10 -8 17 -9 17 -3 0 6 -8
16 -17 21 -15 9 -16 12 -4 20 22 14 76 -25 106 -75 14 -24 28 -44 31 -44 17 0
-51 90 -86 114 -23 15 -46 39 -52 52 -6 13 -17 24 -25 24 -11 0 -10 -5 2 -24z"/>
<path d="M1468 1610 c3 -58 6 -107 8 -109 7 -8 2 153 -6 184 -4 17 -5 -17 -2
-75z"/>
<path d="M1740 1604 c0 -58 -3 -83 -11 -78 -6 3 -3 -8 5 -25 9 -17 18 -31 19
-31 7 0 3 220 -4 220 -5 0 -9 -39 -9 -86z"/>
<path d="M1785 1680 c28 -12 47 -12 40 0 -3 6 -18 10 -33 9 -24 0 -25 -1 -7
-9z"/>
<path d="M4582 1658 c-26 -16 -31 -25 -26 -44 4 -15 2 -24 -5 -24 -6 0 -11 6
-11 13 -1 13 -40 -30 -40 -44 0 -22 40 -6 57 21 9 17 20 30 23 30 3 0 18 10
34 23 23 19 26 25 14 34 -10 9 -21 7 -46 -9z"/>
<path d="M4170 1610 c0 -11 4 -20 9 -20 5 0 7 9 4 20 -3 11 -7 20 -9 20 -2 0
-4 -9 -4 -20z"/>
<path d="M1590 1570 c6 -11 13 -20 16 -20 2 0 0 9 -6 20 -6 11 -13 20 -16 20
-2 0 0 -9 6 -20z"/>
<path d="M1620 1520 c6 -11 13 -20 16 -20 2 0 0 9 -6 20 -6 11 -13 20 -16 20
-2 0 0 -9 6 -20z"/>
<path d="M4500 1504 c-12 -19 -20 -38 -16 -41 11 -12 44 28 42 53 0 13 -2 24
-3 24 -1 0 -11 -16 -23 -36z"/>
<path d="M4237 1465 c-5 -27 -13 -73 -18 -102 -7 -36 -7 -58 1 -73 18 -33 23
-23 18 32 -3 28 -1 67 4 85 5 19 8 50 6 71 -4 36 -4 36 -11 -13z m-10 -147
c-3 -8 -6 -5 -6 6 -1 11 2 17 5 13 3 -3 4 -12 1 -19z"/>
<path d="M2576 1492 c-23 -37 51 -299 106 -380 18 -26 31 -49 29 -52 -1 -3 -7
-11 -13 -17 -7 -9 -7 -13 1 -13 7 0 37 -23 67 -51 30 -29 54 -49 54 -45 0 6
-38 52 -77 93 -13 13 -23 29 -23 35 0 6 -13 34 -29 62 -41 71 -80 192 -95 294
-7 49 -15 81 -20 74z"/>
<path d="M1464 1285 c0 -66 1 -92 3 -57 2 34 2 88 0 120 -2 31 -3 3 -3 -63z"/>
<path d="M4435 1348 c5 -18 4 -20 -4 -8 -9 13 -14 13 -39 -2 -23 -14 -31 -15
-41 -5 -10 9 -10 6 -2 -16 7 -18 7 -26 1 -22 -6 3 -10 -1 -10 -10 0 -9 -6 -15
-12 -12 -20 7 -66 -21 -73 -44 -6 -19 -8 -20 -26 -3 -22 20 -25 6 -4 -22 16
-22 20 -38 5 -29 -5 3 2 -20 16 -51 15 -33 22 -65 19 -78 -5 -17 -4 -18 4 -6
12 17 13 15 15 -60 2 -49 42 -168 53 -157 2 2 -5 25 -16 49 -15 35 -17 49 -8
58 9 10 9 11 0 6 -7 -4 -13 -4 -14 1 0 4 -3 22 -5 38 -4 24 -2 27 6 15 9 -12
10 -9 4 10 -4 14 -9 30 -11 37 -3 6 6 13 19 15 13 2 22 9 20 16 -1 8 2 11 7 8
5 -4 40 11 78 31 59 33 68 42 68 65 -1 16 -6 33 -13 40 -9 9 -8 16 4 29 15 16
14 17 -7 12 -17 -5 -20 -3 -14 8 8 12 6 12 -8 0 -14 -11 -20 -11 -34 0 -10 7
-3 -3 15 -23 19 -20 32 -44 30 -54 -2 -15 -78 -70 -99 -73 -11 -2 -3 47 11 65
8 11 -8 -2 -36 -28 -27 -27 -55 -48 -62 -48 -21 0 -13 26 13 40 14 8 37 29 52
48 l26 34 -24 -7 c-13 -3 -39 -23 -56 -42 -18 -20 -33 -31 -33 -24 0 39 92
117 103 88 5 -11 11 18 8 36 -1 5 3 6 9 2 6 -3 7 -11 4 -17 -4 -7 -2 -8 4 -4
7 4 12 13 12 21 0 7 14 23 30 35 29 21 42 60 19 60 -6 0 -8 -9 -4 -22z m-95
-248 c0 -5 -7 -7 -15 -4 -8 4 -12 10 -9 15 6 11 24 2 24 -11z"/>
<path d="M2437 1283 c-4 -3 -7 -13 -7 -22 0 -12 12 -16 55 -18 31 0 53 3 49 8
-3 5 -13 9 -23 9 -9 0 -26 7 -37 15 -22 16 -28 18 -37 8z"/>
<path d="M5345 1256 c20 -19 34 -39 31 -44 -3 -5 4 -18 16 -28 19 -18 19 -15
-5 32 -15 30 -36 55 -52 62 -24 11 -23 8 10 -22z"/>
<path d="M859 1217 c-36 -34 -51 -50 -34 -35 27 25 32 26 46 13 13 -14 18 -12
43 14 l28 29 48 -29 c54 -33 67 -36 67 -13 0 17 -71 58 -90 51 -6 -2 -18 5
-27 15 -14 16 -19 14 -81 -45z m81 32 c0 -5 -4 -9 -10 -9 -5 0 -10 7 -10 16 0
8 5 12 10 9 6 -3 10 -10 10 -16z"/>
<path d="M2533 1211 c-3 -13 -11 -20 -19 -17 -10 4 -14 -4 -14 -29 0 -19 -4
-35 -8 -35 -5 0 -14 -46 -21 -102 -7 -57 -16 -114 -21 -128 -4 -14 -14 -67
-21 -117 -7 -54 -17 -93 -23 -93 -6 0 -20 -13 -31 -29 -10 -16 -22 -28 -26
-25 -4 2 -5 -5 -2 -16 4 -15 0 -20 -13 -20 -18 -1 -18 -1 1 -16 15 -12 33 -14
70 -9 27 3 51 8 54 10 2 2 -4 27 -13 54 -14 43 -19 101 -8 101 2 0 13 -5 25
-11 20 -10 20 -9 -1 9 -22 17 -23 23 -17 78 4 32 13 73 20 90 7 17 16 64 20
105 4 41 15 93 24 117 15 37 19 41 30 28 14 -17 6 -40 -11 -30 -6 4 -8 2 -4
-4 3 -6 19 -8 33 -6 15 3 24 2 20 -2 -4 -4 3 -18 15 -31 12 -13 16 -23 9 -23
-6 0 -14 7 -17 15 -4 10 -14 14 -28 10 -15 -5 -17 -4 -7 3 7 5 9 12 4 15 -5 3
-17 -3 -26 -13 -19 -23 -14 -27 44 -36 24 -4 51 -12 59 -20 14 -12 19 -14 38
-14 4 0 0 -5 -8 -10 -13 -8 -13 -10 2 -10 27 0 30 17 6 35 l-23 17 22 -5 c13
-3 26 -1 29 4 3 5 -2 9 -11 9 -9 0 -13 4 -10 10 3 5 -9 40 -27 77 -24 49 -39
68 -53 69 -11 1 -28 5 -38 9 -14 6 -20 2 -24 -14z m92 -71 c3 -5 2 -10 -4 -10
-5 0 -13 5 -16 10 -3 6 -2 10 4 10 5 0 13 -4 16 -10z"/>
<path d="M2415 1210 c-4 -6 -3 -16 3 -22 13 -13 23 4 13 21 -7 10 -10 10 -16
1z"/>
<path d="M2447 1188 c8 -44 13 -48 13 -10 0 17 -4 34 -10 37 -6 4 -7 -6 -3
-27z"/>
<path d="M4400 1216 c0 -2 8 -10 18 -17 15 -13 16 -12 3 4 -13 16 -21 21 -21
13z"/>
<path d="M2476 1195 c-3 -9 -6 -24 -5 -33 0 -9 5 -4 10 12 9 32 6 48 -5 21z"/>
<path d="M1753 1180 c-14 -15 -20 -17 -32 -7 -12 10 -14 9 -8 -5 3 -9 0 -22
-8 -28 -11 -9 -7 -25 26 -90 39 -77 40 -79 25 -114 l-15 -36 70 0 c38 0 69 2
69 5 0 2 -14 26 -30 52 -17 26 -28 53 -26 60 3 7 -5 42 -18 77 -13 36 -21 67
-18 70 3 3 0 6 -6 6 -6 0 -9 7 -6 15 8 21 -3 19 -23 -5z m35 -97 c20 -71 17
-89 -8 -58 -7 8 -17 12 -23 8 -6 -4 -7 -1 -3 6 5 7 0 19 -10 27 -11 9 -13 13
-7 9 9 -4 11 -1 7 9 -3 9 -10 14 -14 11 -5 -3 -6 5 -2 17 4 16 2 19 -9 13 -8
-5 -3 4 10 19 14 14 28 23 32 19 4 -5 16 -41 27 -80z"/>
<path d="M1120 1165 c8 -10 8 -14 -1 -17 -7 -2 8 -16 34 -30 37 -21 48 -24 57
-13 8 10 -2 20 -45 43 -31 17 -52 25 -45 17z"/>
<path d="M1667 1143 c-4 -6 -4 -18 -1 -26 3 -10 -3 -20 -16 -27 -12 -6 -39
-27 -60 -46 -35 -32 -38 -38 -33 -74 4 -27 2 -40 -6 -40 -11 0 -19 -16 -35
-67 -7 -22 -5 -23 43 -23 28 0 51 3 51 6 0 17 -24 84 -30 84 -4 0 -5 21 -3 48
3 38 10 52 35 72 70 57 77 64 69 84 -5 12 -10 16 -14 9z"/>
<path d="M2451 1130 c1 -8 5 -26 9 -40 l8 -25 1 25 c0 14 -4 32 -9 40 -9 13
-10 13 -9 0z"/>
<path d="M2442 1070 c0 -14 4 -38 8 -55 l8 -30 0 30 c0 17 -4 41 -8 55 l-8 25
0 -25z"/>
<path d="M5000 1060 c0 -5 5 -10 11 -10 5 0 7 5 4 10 -3 6 -8 10 -11 10 -2 0
-4 -4 -4 -10z"/>
<path d="M1366 1042 c-3 -5 9 -6 26 -4 28 4 30 2 25 -17 -3 -11 -2 -21 3 -21
15 0 18 39 3 44 -21 9 -51 7 -57 -2z"/>
<path d="M1507 1043 c-4 -3 -7 -15 -7 -25 0 -10 -3 -18 -7 -18 -5 0 -8 -14 -9
-30 -1 -19 4 -30 12 -30 9 0 14 11 14 30 0 17 4 30 10 30 5 0 9 9 7 20 -4 24
-11 32 -20 23z"/>
<path d="M5034 985 c43 -42 62 -65 51 -65 -12 0 -15 -5 -11 -16 3 -9 9 -33 12
-55 4 -23 12 -39 20 -39 17 0 17 3 -1 47 -13 31 -13 39 -2 50 12 12 4 24 -53
79 -37 35 -71 64 -76 64 -5 -1 22 -30 60 -65z"/>
<path d="M4210 1032 c0 -7 -20 -22 -45 -33 -25 -11 -45 -24 -45 -29 0 -11 -32
-1 -41 12 -3 5 -12 2 -19 -7 -10 -12 -10 -15 5 -15 12 0 8 -7 -15 -26 -31 -27
-35 -48 -3 -23 12 10 10 4 -6 -18 l-22 -33 38 0 c21 0 48 3 61 6 21 6 23 11
17 44 l-6 36 47 0 c43 -1 48 1 55 27 4 16 3 27 -2 27 -6 0 -8 4 -5 8 2 4 1 14
-5 22 -6 11 -9 12 -9 2z m-10 -73 c0 -5 -4 -9 -10 -9 -5 0 -10 6 -10 13 0 8
-3 7 -10 -3 -5 -8 -12 -11 -17 -7 -4 5 -1 12 6 17 16 9 41 3 41 -11z"/>
<path d="M4690 1031 c0 -5 -2 -16 -5 -23 -4 -9 4 -19 20 -26 17 -8 25 -19 25
-37 0 -14 5 -25 10 -25 6 0 10 11 10 25 0 14 -4 25 -8 25 -4 0 -14 16 -21 35
-11 32 -31 48 -31 26z"/>
<path d="M4798 1022 c19 -21 27 -20 19 3 -4 8 -13 15 -22 15 -13 0 -12 -3 3
-18z"/>
<path d="M1377 1023 c-4 -3 -7 -11 -7 -17 0 -6 5 -5 12 2 6 6 9 14 7 17 -3 3
-9 2 -12 -2z"/>
<path d="M4955 1010 c10 -11 20 -18 23 -15 7 6 -18 35 -31 35 -5 0 -2 -9 8
-20z"/>
<path d="M2432 1005 c0 -11 4 -33 8 -50 7 -27 8 -27 8 -5 0 14 -4 36 -8 50 -6
20 -8 21 -8 5z"/>
<path d="M2702 980 c7 -14 19 -29 26 -33 17 -11 15 -30 -7 -69 -10 -18 -21
-55 -24 -83 -4 -32 -3 -43 3 -30 5 11 9 15 9 9 1 -9 12 -9 39 -3 20 5 56 9 79
9 50 0 75 9 66 23 -3 6 -1 7 6 3 9 -6 9 -11 0 -22 -9 -11 -6 -14 17 -14 16 -1
40 -7 54 -15 l25 -14 -32 -1 c-17 0 -34 4 -37 9 -7 10 -30 8 -125 -14 -61 -14
-71 -19 -56 -28 16 -9 15 -11 -14 -26 l-32 -17 63 2 c35 1 79 -2 99 -7 21 -5
86 -10 145 -12 60 -1 112 -6 116 -12 5 -6 8 -3 8 7 0 34 -23 67 -59 84 -20 9
-58 30 -84 47 -41 25 -51 28 -59 16 -8 -11 -9 -11 -5 3 7 22 -15 40 -39 32
-13 -4 -15 -3 -7 3 9 6 -5 26 -51 72 -42 42 -66 59 -71 51 -5 -8 -17 -1 -37
22 -23 26 -26 28 -16 8z m83 -71 c-4 -5 8 -17 25 -27 57 -31 64 -38 50 -47 -8
-5 -11 -4 -7 2 4 6 0 13 -7 16 -10 4 -13 0 -11 -14 3 -13 -2 -19 -15 -19 -14
0 -22 11 -30 39 -6 22 -16 41 -22 43 -6 2 -8 10 -4 16 4 7 12 10 17 6 5 -3 7
-10 4 -15z m-2 -110 c17 -1 15 -3 -8 -9 -61 -16 -67 -13 -59 22 3 18 14 38 23
45 14 10 16 7 19 -23 3 -27 8 -34 25 -35z"/>
<path d="M2805 851 c-3 -5 -2 -12 3 -15 5 -3 9 1 9 9 0 17 -3 19 -12 6z"/>
<path d="M2720 800 c0 -5 7 -10 15 -10 8 0 15 5 15 10 0 6 -7 10 -15 10 -8 0
-15 -4 -15 -10z"/>
<path d="M1917 931 c-4 -18 -7 -49 -7 -68 0 -26 -4 -34 -14 -30 -10 4 -19 -8
-30 -40 -22 -64 -21 -71 12 -67 15 2 54 5 87 6 33 1 47 4 32 6 -38 5 -59 53
-66 152 -5 64 -7 70 -14 41z"/>
<path d="M5030 936 c0 -2 8 -10 18 -17 15 -13 16 -12 3 4 -13 16 -21 21 -21
13z"/>
<path d="M5505 928 c-11 -6 -21 -12 -23 -13 -1 -1 -6 -25 -11 -53 l-8 -51 74
-7 c41 -3 76 -4 78 -2 3 2 -17 34 -43 70 -42 58 -50 65 -67 56z"/>
<path d="M2412 910 c0 -14 2 -19 5 -12 2 6 2 18 0 25 -3 6 -5 1 -5 -13z"/>
<path d="M2850 895 c13 -14 26 -25 28 -25 3 0 -5 11 -18 25 -13 14 -26 25 -28
25 -3 0 5 -11 18 -25z"/>
<path d="M5141 891 c-10 -7 -8 -12 10 -24 12 -9 26 -14 30 -12 6 5 23 -23 21
-35 0 -3 8 -7 19 -7 10 -1 19 -1 19 1 0 1 -19 21 -43 44 -29 28 -46 39 -56 33z
m30 -18 c13 -16 12 -17 -3 -4 -10 7 -18 15 -18 17 0 8 8 3 21 -13z"/>
<path d="M390 799 l-75 -69 81 0 81 0 12 43 c7 23 20 49 28 59 16 17 11 22
-27 31 -21 5 -38 -6 -100 -64z"/>
<path d="M2657 808 c6 -7 13 -20 16 -28 3 -9 6 -3 6 13 1 19 -4 27 -15 27 -12
0 -14 -4 -7 -12z"/>
<path d="M4340 805 c0 -5 5 -17 10 -25 5 -8 10 -10 10 -5 0 6 -5 17 -10 25 -5
8 -10 11 -10 5z"/>
<path d="M3110 725 c0 -2 10 -10 23 -16 20 -11 21 -11 8 4 -13 16 -31 23 -31
12z"/>
<path d="M2370 705 c-7 -9 -10 -18 -7 -21 3 -3 10 4 17 15 13 25 8 27 -10 6z"/>
<path d="M3181 716 c2 -2 18 -6 34 -10 22 -5 26 -4 15 4 -14 9 -59 15 -49 6z"/>
<path d="M2334 681 c1 -16 4 -27 9 -24 10 6 9 41 -2 47 -4 3 -8 -8 -7 -23z"/>
<path d="M2440 690 c0 -5 5 -10 11 -10 5 0 7 5 4 10 -3 6 -8 10 -11 10 -2 0
-4 -4 -4 -10z"/>
<path d="M1997 679 c7 -7 15 -10 18 -7 3 3 -2 9 -12 12 -14 6 -15 5 -6 -5z"/>
<path d="M3236 668 c5 -25 3 -28 -20 -28 -14 0 -26 -5 -26 -11 0 -6 9 -8 20
-4 11 4 126 7 255 8 187 2 235 5 235 15 0 9 -7 11 -20 7 -16 -5 -20 -2 -20 15
0 19 -4 21 -27 15 -84 -20 -175 -34 -228 -34 -83 0 -155 13 -166 30 -7 9 -8 5
-3 -13z m414 -18 c0 -5 -4 -10 -10 -10 -5 0 -10 5 -10 10 0 6 5 10 10 10 6 0
10 -4 10 -10z"/>
<path d="M2153 643 c9 -2 23 -2 30 0 6 3 -1 5 -18 5 -16 0 -22 -2 -12 -5z"/>
<path d="M2498 633 c12 -2 32 -2 45 0 12 2 2 4 -23 4 -25 0 -35 -2 -22 -4z"/>
<path d="M2803 623 c32 -2 81 -2 110 0 29 2 3 3 -58 3 -60 0 -84 -1 -52 -3z"/>
</g>
</svg>
